<?xml version="1.0" encoding="utf-8"?>
<!-- Generator: Adobe Illustrator 14.0.0, SVG Export Plug-In . SVG Version: 6.00 Build 43363)  -->
<!DOCTYPE svg PUBLIC "-//W3C//DTD SVG 1.1//EN" "http://www.w3.org/Graphics/SVG/1.1/DTD/svg11.dtd">
<svg version="1.1" id="Calque_1" xmlns="http://www.w3.org/2000/svg" xmlns:xlink="http://www.w3.org/1999/xlink" x="0px" y="0px"
	 width="566.93px" height="85.04px" viewBox="0 0 566.93 85.04" enable-background="new 0 0 566.93 85.04" xml:space="preserve">
<g>
	<g>
		<rect x="13.573" y="9.854" fill="#FFFFFF" width="48.391" height="68.79"/>
		<path d="M61.567,10.25v67.998H13.97V10.25H61.567 M62.36,9.457h-0.793H13.97h-0.793v0.792v67.998v0.793h0.793h47.598h0.793v-0.793
			V10.25V9.457L62.36,9.457z"/>
	</g>
	<g>
		<rect x="15.258" y="8.168" fill="#FFFFFF" width="48.391" height="68.791"/>
		<path d="M63.252,8.565v67.998H15.654V8.565H63.252 M64.045,7.772h-0.793H15.654h-0.793v0.793v67.998v0.793h0.793h47.598h0.793
			v-0.793V8.565V7.772L64.045,7.772z"/>
	</g>
	<g>
		<rect x="16.942" y="6.483" fill="#FFFFFF" width="48.391" height="68.791"/>
		<path d="M64.937,6.88v67.998H17.339V6.88H64.937 M65.729,6.087h-0.793H17.339h-0.792V6.88v67.998v0.792h0.792h47.598h0.793v-0.792
			V6.88V6.087L65.729,6.087z"/>
	</g>
	<g>
		<path fill="#FFFFFF" d="M66.534,73.58c-1.497-0.335-36.72-8.209-40.673-9.685c-5.78-2.159-7.234-3.781-7.234-11.868V4.799h48.391
			v68.889L66.534,73.58z"/>
		<path d="M66.621,5.195v67.997c0,0-36.647-8.186-40.621-9.669c-5.484-2.048-6.977-3.37-6.977-11.496c0-10.109,0-46.832,0-46.832
			H66.621 M67.414,4.402h-0.793H19.023H18.23v0.793v46.832c0,8.266,1.597,10.037,7.492,12.238c3.979,1.486,39.227,9.366,40.726,9.7
			l0.966,0.217v-0.99V5.195V4.402L67.414,4.402z"/>
	</g>
	<path fill="none" stroke="#000000" d="M66.402,73.236L28.709,51.167c0,0-0.366,7.464-3.898,9.978
		c-3.898,2.775-5.576-3.022-5.576-3.022"/>
	<path d="M57.737,59.371c-0.751-0.386-1.598-1.211-2.541-2.478c-1.008-1.35-2.611-3.538-4.81-6.562
		c-2.197-3.023-4.176-5.619-5.935-7.785c1.695-1.562,3.015-2.824,3.96-3.788c0.943-0.963,1.673-1.658,2.188-2.088
		c0.728-0.643,1.783-1.365,3.166-2.169s2.974-1.475,4.774-2.01v-1.993H44.595v2.058c0.857,0.107,1.752,0.302,2.685,0.581
		c0.933,0.278,1.398,0.708,1.398,1.29c0,0.192-0.103,0.445-0.306,0.757s-0.391,0.564-0.562,0.759
		c-1.33,1.499-2.966,3.207-4.906,5.125c-1.941,1.918-3.749,3.712-5.421,5.383v-33.54l-0.451-0.482l-11.734,0.707v2.058
		c0.578,0.043,1.344,0.118,2.298,0.226c0.954,0.107,1.656,0.332,2.106,0.675c0.535,0.364,0.969,0.896,1.302,1.592
		c0.332,0.698,0.499,1.443,0.499,2.237v32.582l5.98,3.71v-7.391l2.639-2.46c2.06,2.611,4.045,5.3,5.954,8.062
		c1.911,2.763,3.702,5.354,5.377,7.774h9.564v-2.123C59.58,59.993,58.487,59.757,57.737,59.371z"/>
</g>
<g>
	<path fill="#FFFFFF" d="M87.129,30.803h3.511v10.045l9.504-10.045h4.337l-8.332,8.59l8.704,11.388h-4.282l-6.819-8.99l-3.111,3.196
		v5.794h-3.511V30.803z"/>
	<path fill="#FFFFFF" d="M107.851,30.803h3.254l10.703,13.813V30.803h3.453v19.978h-2.94l-11.017-14.213v14.213h-3.453V30.803z"/>
	<path fill="#FFFFFF" d="M129.515,40.849v-0.057c0-5.622,4.338-10.332,10.475-10.332c6.136,0,10.417,4.652,10.417,10.274v0.058
		c0,5.622-4.339,10.331-10.475,10.331C133.797,51.123,129.515,46.472,129.515,40.849z M146.725,40.849v-0.057
		c0-3.882-2.825-7.106-6.793-7.106c-3.967,0-6.734,3.168-6.734,7.049v0.058c0,3.882,2.824,7.078,6.792,7.078
		S146.725,44.73,146.725,40.849z"/>
	<path fill="#FFFFFF" d="M152.008,30.803h3.796l4.767,14.812l4.908-14.87h2.968l4.908,14.87l4.767-14.812h3.682l-6.935,20.121
		h-3.054l-4.909-14.355l-4.909,14.355h-3.024L152.008,30.803z"/>
	<path fill="#FFFFFF" d="M185.402,30.803h3.511v16.781h10.503v3.197h-14.014V30.803z"/>
	<path fill="#FFFFFF" d="M203.07,30.803h14.812v3.139h-11.301v5.194h10.018v3.14h-10.018v5.365h11.443v3.14H203.07V30.803z"/>
	<path fill="#FFFFFF" d="M222.193,30.803h7.45c6.278,0,10.615,4.309,10.615,9.931v0.058c0,5.622-4.337,9.989-10.615,9.989h-7.45
		V30.803z M225.704,33.999v13.585h3.939c4.195,0,6.935-2.825,6.935-6.735v-0.057c0-3.91-2.739-6.793-6.935-6.793H225.704z"/>
	<path fill="#FFFFFF" d="M243.63,40.849v-0.057c0-5.594,4.282-10.332,10.303-10.332c3.483,0,5.623,0.971,7.678,2.711l-2.227,2.654
		c-1.541-1.313-3.054-2.141-5.594-2.141c-3.681,0-6.478,3.225-6.478,7.049v0.058c0,4.109,2.71,7.135,6.792,7.135
		c1.884,0,3.596-0.599,4.822-1.513v-3.738h-5.108v-3.054h8.506v8.391c-1.97,1.684-4.796,3.11-8.334,3.11
		C247.74,51.123,243.63,46.671,243.63,40.849z"/>
	<path fill="#FFFFFF" d="M266.893,30.803h14.812v3.139h-11.302v5.194h10.018v3.14h-10.018v5.365h11.444v3.14h-14.955V30.803z"/>
	<path fill="#FFFFFF" d="M294.579,30.803h3.511v8.305h9.531v-8.305h3.511v19.978h-3.511v-8.42h-9.531v8.42h-3.511V30.803z"/>
	<path fill="#FFFFFF" d="M316.271,30.803h14.812v3.139h-11.302v5.194H329.8v3.14h-10.018v5.365h11.444v3.14h-14.955V30.803z"/>
	<path fill="#FFFFFF" d="M335.395,30.803h3.511v16.781h10.503v3.197h-14.014V30.803z"/>
	<path fill="#FFFFFF" d="M353.062,30.803h7.878c4.68,0,7.591,2.654,7.591,6.678v0.057c0,4.48-3.596,6.821-7.99,6.821h-3.968v6.422
		h-3.511V30.803z M360.655,41.191c2.654,0,4.31-1.484,4.31-3.567v-0.058c0-2.34-1.685-3.567-4.31-3.567h-4.082v7.192H360.655z"/>
	<path fill="#FFFFFF" d="M372.13,30.803h14.812v3.139h-11.302v5.194h10.018v3.14h-10.018v5.365h11.444v3.14H372.13V30.803z"/>
	<path fill="#FFFFFF" d="M391.253,30.803h8.904c2.512,0,4.481,0.742,5.766,1.998c1.056,1.085,1.655,2.568,1.655,4.31v0.057
		c0,3.282-1.968,5.251-4.737,6.051l5.394,7.563h-4.167l-4.909-6.964h-4.395v6.964h-3.511V30.803z M399.902,40.706
		c2.51,0,4.108-1.312,4.108-3.339v-0.057c0-2.141-1.541-3.312-4.138-3.312h-5.109v6.707H399.902z"/>
</g>
</svg>
