<?xml version="1.0" encoding="utf-8"?>
<!-- Generator: Adobe Illustrator 14.0.0, SVG Export Plug-In . SVG Version: 6.00 Build 43363)  -->
<!DOCTYPE svg PUBLIC "-//W3C//DTD SVG 1.1//EN" "http://www.w3.org/Graphics/SVG/1.1/DTD/svg11.dtd">
<svg version="1.1" id="Calque_1" xmlns="http://www.w3.org/2000/svg" xmlns:xlink="http://www.w3.org/1999/xlink" x="0px" y="0px"
	 width="141.73px" height="141.73px" viewBox="0 0 141.73 141.73" enable-background="new 0 0 141.73 141.73" xml:space="preserve">
<g id="XMLID_3_">
	<g>
		<g>
			
				<rect x="21.746" y="36.849" transform="matrix(-0.2291 0.9734 -0.9734 -0.2291 156.0536 27.8756)" fill="#FFFFFF" width="90.487" height="77.761"/>
			<path fill="#231F20" d="M40.387,24.198l73.399,17.278l-20.193,85.786l-73.399-17.277L40.387,24.198 M38.632,21.365
				l-21.273,90.374l77.986,18.356l21.273-90.373L38.632,21.365L38.632,21.365z"/>
		</g>
	</g>
	<g>
	</g>
</g>
<polygon fill="#231F20" points="86.116,32.02 87.049,14.695 84.55,16.162 82.519,14.45 80.312,15.934 78.279,14.222 76.075,15.706 
	74.042,13.994 71.837,15.478 69.746,13.762 68.812,31.087 68.472,37.41 67.54,54.735 70.038,53.268 72.07,54.979 74.275,53.495 
	76.309,55.207 78.515,53.723 80.546,55.436 82.752,53.952 84.843,55.666 86.116,32.02 "/>
</svg>
