<?xml version="1.0" encoding="utf-8"?>
<!-- Generator: Adobe Illustrator 14.0.0, SVG Export Plug-In . SVG Version: 6.00 Build 43363)  -->
<!DOCTYPE svg PUBLIC "-//W3C//DTD SVG 1.1//EN" "http://www.w3.org/Graphics/SVG/1.1/DTD/svg11.dtd">
<svg version="1.1" id="Calque_1" xmlns="http://www.w3.org/2000/svg" xmlns:xlink="http://www.w3.org/1999/xlink" x="0px" y="0px"
	 width="800px" height="400px" viewBox="0 0 800 400" enable-background="new 0 0 800 400" xml:space="preserve">
<g>
	<g>
		<path fill="#FFFFFF" d="M197.171,154.476c-3.761,14.709-7.222,28.9-10.41,42.67c7.384-0.069,14.763-0.138,22.147-0.216
			c3.966-14.288,8.246-29.086,12.834-44.394C213.545,153.183,205.364,153.849,197.171,154.476z"/>
		<path fill="#FFFFFF" d="M132.535,159.382c-6.615,0.539-13.211,1.058-19.812,1.586c-2.733,12.791-5.181,25.13-7.311,36.902
			c7.027-0.049,14.073-0.108,21.114-0.177c1.019-4.7,2.091-9.47,3.207-14.328c4.187,4.672,8.325,9.382,12.428,14.201
			c7.296-0.079,14.563-0.128,21.845-0.226C153.807,184.218,143.317,171.555,132.535,159.382z"/>
		<path fill="#FFFFFF" d="M48.229,166.325c-8.437,0.657-16.884,1.352-25.335,2.018c12.644,9.46,24.964,19.459,36.98,29.938
			c7.6-0.039,15.179-0.127,22.779-0.177C71.473,187.039,59.996,176.452,48.229,166.325z"/>
		<path fill="#FFFFFF" d="M275.851,147.483c-7.394,17.021-14.396,33.366-20.978,49.055c7.331-0.098,14.656-0.157,22.001-0.215
			c3.776-9.059,7.664-18.294,11.679-27.784c5.925,8.971,11.728,18.127,17.408,27.5c7.531-0.059,15.067-0.137,22.613-0.196
			c-9.936-17.383-20.258-34.081-31.001-50.112C290.336,146.317,283.088,146.896,275.851,147.483z"/>
		<path fill="#FFFFFF" d="M434.915,133.419c-39.702,3.731-67.094,31.496-68,62.081c7.81-0.098,15.631-0.147,23.455-0.235
			c1.396-21.477,18.77-39.712,43.654-41.367c24.768-1.646,41.515,16.472,42.004,40.593c7.845-0.069,15.69-0.147,23.524-0.215
			C500.512,157.091,474.764,129.688,434.915,133.419z"/>
		<path fill="#FFFFFF" d="M540.458,127.182c-8.441,0.686-16.894,1.341-25.345,2.018c5.553,21.075,10.812,42.679,15.738,64.773
			c7.6-0.049,15.188-0.127,22.779-0.196C549.537,171.115,545.15,148.913,540.458,127.182z"/>
		<path fill="#FFFFFF" d="M689.386,115.361c-10.831,26.275-21.389,52.091-31.632,77.446c7.365-0.059,14.758-0.127,22.133-0.186
			c11.066-25.913,22.407-52.307,34.062-79.238C705.771,114.039,697.583,114.675,689.386,115.361z"/>
		<path fill="#FFFFFF" d="M624.887,120.022c-6.601,0.548-13.211,1.058-19.821,1.586c-9.853,24.484-19.411,48.477-28.675,71.952
			c7.031-0.068,14.083-0.117,21.114-0.176c3.741-9.137,7.521-18.373,11.36-27.676c1.469,9.098,2.898,18.284,4.27,27.529
			c7.297-0.088,14.583-0.137,21.859-0.215C631.919,168.226,628.55,143.889,624.887,120.022z"/>
		<path fill="#FFFFFF" d="M132.221,197.655c-7.027,0.059-14.078,0.107-21.119,0.177c-0.622,3.427-1.234,6.777-1.812,10.078
			c6.875,0.107,13.745,0.185,20.625,0.273C130.66,204.706,131.433,201.199,132.221,197.655z"/>
		<path fill="#FFFFFF" d="M88.362,198.065c-7.61,0.039-15.199,0.128-22.794,0.177c3.417,3.075,6.811,6.15,10.165,9.274
			c7.365,0.088,14.719,0.205,22.084,0.264C94.689,204.5,91.524,201.259,88.362,198.065z"/>
		<path fill="#FFFFFF" d="M214.613,196.881c-7.384,0.049-14.773,0.157-22.167,0.206c-0.921,3.986-1.832,7.922-2.723,11.811
			c7.155,0.117,14.313,0.195,21.477,0.283C212.312,205.138,213.453,201.015,214.613,196.881z"/>
		<path fill="#FFFFFF" d="M169.711,197.302c-7.292,0.068-14.568,0.137-21.845,0.196c3.031,3.614,6.052,7.277,9.034,11.007
			c7.116,0.089,14.24,0.167,21.355,0.275C175.425,204.901,172.59,201.072,169.711,197.302z"/>
		<path fill="#FFFFFF" d="M334.264,195.794c-7.532,0.059-15.077,0.127-22.623,0.195c2.855,4.77,5.67,9.627,8.451,14.494
			c7.462,0.107,14.935,0.187,22.407,0.265C339.782,205.705,337.045,200.729,334.264,195.794z"/>
		<path fill="#FFFFFF" d="M282.569,196.264c-7.33,0.059-14.67,0.146-22.01,0.195c-1.88,4.486-3.722,8.903-5.548,13.231
			c7.286,0.108,14.577,0.176,21.869,0.265C278.746,205.46,280.645,200.867,282.569,196.264z"/>
		<path fill="#FFFFFF" d="M505.291,198.673c0.009-0.147,0.02-0.255,0.02-0.412c0.116-1.38-0.089-2.673-0.06-4.034
			c-7.835,0.059-15.688,0.137-23.523,0.195c0.029,1.46,0.206,2.87,0.118,4.329c0,0.136-0.011,0.254-0.021,0.392
			c-0.273,4.643-1.264,9.08-2.546,13.28c7.913,0.079,15.826,0.196,23.739,0.274C504.154,208.183,504.929,203.463,505.291,198.673z"
			/>
		<path fill="#FFFFFF" d="M395.741,199.124c0-0.118,0-0.236,0-0.352c-0.004-1.205,0.236-2.361,0.313-3.546
			c-7.814,0.079-15.635,0.137-23.449,0.226c-0.064,1.253-0.329,2.487-0.304,3.76c0,0.108,0.005,0.226,0.005,0.333
			c0.098,3.946,0.622,7.805,1.469,11.596c7.967,0.087,15.938,0.195,23.915,0.293C396.569,207.487,395.751,203.403,395.741,199.124z"
			/>
		<path fill="#FFFFFF" d="M685.605,192.552c-7.402,0.079-14.788,0.137-22.172,0.206c-2.947,7.286-5.896,14.573-8.813,21.79
			c7.168,0.089,14.327,0.157,21.486,0.256C679.24,207.457,682.394,200.025,685.605,192.552z"/>
		<path fill="#FFFFFF" d="M640.693,192.983c-7.286,0.049-14.572,0.127-21.858,0.196c1.019,6.953,2.017,13.936,2.957,20.967
			c7.13,0.107,14.259,0.166,21.369,0.254C642.368,207.223,641.535,200.074,640.693,192.983z"/>
		<path fill="#FFFFFF" d="M559.33,193.717c-7.58,0.069-15.18,0.167-22.779,0.216c1.392,6.385,2.752,12.771,4.084,19.205
			c7.374,0.117,14.729,0.216,22.084,0.305C561.622,206.821,560.485,200.27,559.33,193.717z"/>
		<path fill="#FFFFFF" d="M603.204,193.316c-7.031,0.069-14.073,0.137-21.124,0.206c-2.653,6.727-5.277,13.407-7.903,20.046
			c6.895,0.079,13.771,0.167,20.646,0.265C597.593,207.018,600.384,200.191,603.204,193.316z"/>
		<path fill="#FFFFFF" d="M320.171,210.621c-0.034-0.049-0.049-0.098-0.079-0.138c-14.411-0.166-28.811-0.353-43.213-0.528
			c-0.029,0.04-0.043,0.107-0.054,0.138C291.271,210.249,305.711,210.455,320.171,210.621z"/>
		<path fill="#FFFFFF" d="M130.488,239.081c1.871-9.91,3.986-20.165,6.312-30.82c-6.889-0.078-13.77-0.167-20.65-0.244
			c-0.626,3.496-1.253,6.992-1.84,10.419c-3.183-3.555-6.39-7.07-9.627-10.566c-7.355-0.089-14.72-0.147-22.074-0.273
			c10.082,9.636,19.949,19.636,29.571,30.006C118.286,238.102,124.387,238.601,130.488,239.081z"/>
		<path fill="#FFFFFF" d="M208.415,245.339c2.986-11.655,6.204-23.681,9.656-36.089c-7.169-0.069-14.328-0.167-21.477-0.284
			c-0.95,4.132-1.88,8.206-2.791,12.231c-2.875-4.161-5.763-8.246-8.676-12.368c-7.106-0.06-14.231-0.157-21.355-0.235
			c8.942,11.381,17.672,23.133,26.154,35.227C196.095,244.359,202.239,244.819,208.415,245.339z"/>
		<path fill="#FFFFFF" d="M268.016,249.412c3.056-7.667,6.229-15.531,9.485-23.532c19.543,0.743,39.101,1.468,58.623,2.232
			c4.721,9.088,9.329,18.353,13.843,27.773c7.482,0.607,14.969,1.186,22.476,1.782c-7.409-16.08-15.102-31.69-23.073-46.831
			c-7.462-0.089-14.945-0.167-22.417-0.265c0.034,0.049,0.059,0.078,0.083,0.127c-14.444-0.176-28.89-0.353-43.345-0.539
			c0.021-0.029,0.04-0.067,0.049-0.098c-7.286-0.107-14.577-0.196-21.858-0.273c-5.499,13.083-10.724,25.727-15.65,37.89
			C253.498,248.277,260.754,248.845,268.016,249.412z"/>
		<path fill="#FFFFFF" d="M443.338,265.444c32.298,3.057,58.172-19.831,66.556-52.649c-7.914-0.107-15.826-0.216-23.74-0.293
			c-6.14,19.782-21.8,33.229-41.778,32.043c-19.86-1.194-34.766-15.336-39.81-33.032c-7.977-0.099-15.953-0.196-23.925-0.295
			C386.81,238.787,410.883,262.457,443.338,265.444z"/>
		<path fill="#FFFFFF" d="M654.904,281.143c9.127-21.712,18.479-43.796,28.058-66.252c-7.149-0.087-14.298-0.186-21.468-0.254
			c-3.064,7.57-6.111,15.13-9.137,22.623c-0.744-7.619-1.527-15.199-2.321-22.761c-7.129-0.099-14.239-0.187-21.369-0.245
			c2.82,21.399,5.396,43.237,7.757,65.411C642.574,280.174,648.743,280.653,654.904,281.143z"/>
		<path fill="#FFFFFF" d="M576.979,274.904c8.029-19.948,16.246-40.29,24.718-61.013c-6.874-0.059-13.769-0.156-20.644-0.244
			c-2.742,6.982-5.484,13.926-8.178,20.81c-1.067-7.001-2.164-14.004-3.291-20.947c-7.354-0.078-14.719-0.165-22.084-0.255
			c3.956,19.676,7.679,39.733,11.184,60.19C564.785,273.916,570.887,274.386,576.979,274.904z"/>
	</g>
	<path fill="#FFFFFF" d="M767.019,119.209c0.558-2.958,1.127-5.915,1.694-8.873c-9.021,0.715-18.02,1.4-27.029,2.125
		c-0.529,2.899-1.059,5.769-1.577,8.647c-2.674,23.093-5.436,46.274-8.236,69.533c5.739-0.059,11.487-0.118,17.216-0.176
		C755.012,166.806,760.986,143.027,767.019,119.209z"/>
	<path fill="#FFFFFF" d="M721.009,286.511c7.658,0.626,15.307,1.223,22.976,1.831c2.281-11.733,4.594-23.485,6.865-35.256
		c-7.805-0.334-15.61-0.696-23.426-1.068C725.289,263.515,723.134,275.041,721.009,286.511z"/>
	<path fill="#FFFFFF" d="M754.316,190.407c-5.738,0.059-11.478,0.118-17.196,0.176c-1,8.001-1.999,16.023-2.978,24.073
		c4.681,0.049,9.362,0.127,14.043,0.165C750.232,206.674,752.279,198.546,754.316,190.407z"/>
	<path fill="#FFFFFF" d="M749.165,231.501c1.381-5.544,2.781-11.087,4.173-16.61c-4.682-0.059-9.363-0.107-14.045-0.186
		c-0.695,5.514-1.39,10.968-2.095,16.462C741.193,231.266,745.18,231.393,749.165,231.501z"/>
</g>
</svg>
