<?xml version="1.0" encoding="utf-8"?>
<!-- Generator: Adobe Illustrator 14.0.0, SVG Export Plug-In . SVG Version: 6.00 Build 43363)  -->
<!DOCTYPE svg PUBLIC "-//W3C//DTD SVG 1.1//EN" "http://www.w3.org/Graphics/SVG/1.1/DTD/svg11.dtd">
<svg version="1.1" id="Calque_1" xmlns="http://www.w3.org/2000/svg" xmlns:xlink="http://www.w3.org/1999/xlink" x="0px" y="0px"
	 width="141.73px" height="141.73px" viewBox="0 0 141.73 141.73" enable-background="new 0 0 141.73 141.73" xml:space="preserve">
<g>
	<path d="M120.588,46.401h-5.447c-0.477-1.895-1.334-4.146-2.574-6.751c-1.238-2.606-2.623-5.066-4.154-7.384
		c-1.584-2.42-3.311-4.54-5.184-6.356c-1.873-1.816-3.682-2.855-5.422-3.119c-1.637-0.209-3.692-0.367-6.172-0.474
		c-2.481-0.105-4.777-0.158-6.887-0.158h-4.59v89.626c0,1.737,0.367,3.329,1.105,4.777c0.736,1.449,2.025,2.566,3.869,3.356
		c0.947,0.368,2.934,0.868,5.962,1.5c3.027,0.632,5.382,0.975,7.067,1.026v5.606H45.255v-5.606c1.473-0.105,3.723-0.315,6.751-0.632
		c3.027-0.315,5.12-0.71,6.278-1.185c1.737-0.683,3.013-1.67,3.83-2.961c0.816-1.289,1.224-3.013,1.224-5.172V22.159h-4.58
		c-1.632,0-3.66,0.04-6.081,0.119s-4.738,0.25-6.949,0.513c-1.737,0.21-3.542,1.251-5.409,3.119
		c-1.869,1.869-3.593,3.987-5.173,6.356c-1.579,2.369-2.974,4.884-4.185,7.541c-1.212,2.659-2.053,4.856-2.527,6.594h-5.528V16
		h97.68V46.401z"/>
</g>
</svg>
